<svg xmlns="http://www.w3.org/2000/svg" width="1917.9793" height="764.5299" viewBox="0 0 1917.9793 764.5299"><title>pattern-bg--blue</title><path d="M909.9185-82.9869h0m-19.083,361.1132,19.083-361.1132L574.6006,181.5225l316.235,96.6037" fill="#75c6e0"/><polyline points="-0.619 740.444 130.236 696.742 72.987 657.641 -0.619 740.444" fill="#eaf7f8"/><polyline points="-0.619 740.444 72.987 657.641 81.166 446.032 -0.619 740.444" fill="#e5f5f6"/><path d="M909.9185-82.9869h0M1035.3218,59.6184l122.6774-41.4019L909.9185-82.9869,1035.3218,59.6184" fill="#66bee2"/><path d="M-.6186-69.1862h0m0,0h0m0,0h0m0,809.63h0L81.166,446.0321-.6186-69.1862v809.63" fill="#dbf1f4"/><polyline points="1318.843 335.629 1509.673 220.625 1359.735 218.324 1318.843 335.629" fill="#94d1e9"/><polyline points="394.674 2.116 536.435 -117.489 195.665 -165.79 394.674 2.116" fill="#6ac2df"/><polyline points="1157.999 18.216 1117.106 -177.291 909.919 -82.987 1157.999 18.216" fill="#4cb2df"/><path d="M1002.6075,565.6367h0m0,0h0M958.99,740.4437l43.6177-174.8069L721.8136,609.3384,958.99,740.4437" fill="#f5fbfc"/><polyline points="419.21 710.543 536.435 452.933 318.341 627.74 419.21 710.543" fill="#ecf8f9"/><polyline points="419.21 710.543 721.814 609.338 536.435 452.933 419.21 710.543" fill="#f6fbfc"/><polyline points="1032.596 158.522 1157.999 18.216 1035.322 59.618 1032.596 158.522" fill="#7fc8e6"/><polyline points="187.486 27.417 394.674 2.116 195.665 -165.79 187.486 27.417" fill="#59bcd8"/><polyline points="1416.984 508.135 1594.185 503.535 1509.673 220.625 1416.984 508.135" fill="#cae9f4"/><polyline points="1157.999 18.216 1340.651 -122.088 1117.106 -177.291 1157.999 18.216" fill="#60bae4"/><polyline points="187.486 27.417 187.486 27.417 195.665 -165.79 -0.619 -69.186 187.486 27.417" fill="#6dc5dd"/><polyline points="72.987 657.641 318.341 627.74 293.807 505.835 72.987 657.641" fill="#edf8f9"/><polyline points="78.439 149.322 187.486 27.417 -0.619 -69.186 78.439 149.322" fill="#88d0e0"/><polyline points="1755.028 149.322 1662.339 -209.492 1340.651 -122.088 1755.028 149.322" fill="#49afdf"/><polyline points="1755.028 149.322 1918.598 -69.186 1662.339 -209.492 1755.028 149.322" fill="#76c2e6"/><path d="M285.628,213.7244h0m8.1786,292.1109h0l242.628-52.9019L285.628,213.7244l8.1786,292.1109" fill="#d0edf1"/><polyline points="285.628 213.724 187.486 27.417 78.439 149.322 285.628 213.724" fill="#89d0e0"/><polyline points="1509.673 220.625 1340.651 -122.088 1359.735 218.324 1509.673 220.625" fill="#7ac5e7"/><polyline points="1509.673 220.625 1755.028 149.322 1340.651 -122.088 1509.673 220.625" fill="#60bae4"/><polyline points="574.601 181.523 574.601 181.523 909.919 -82.987 536.435 -117.489 574.601 181.523" fill="#53b8db"/><polyline points="574.601 181.523 536.435 -117.489 394.674 2.116 574.601 181.523" fill="#6ac3dd"/><polyline points="285.628 213.724 574.601 181.523 394.674 2.116 285.628 213.724" fill="#79cade"/><polyline points="285.628 213.724 285.628 213.724 394.674 2.116 187.486 27.417 285.628 213.724" fill="#6ec6db"/><polyline points="1359.735 218.324 1359.735 218.324 1340.651 -122.088 1157.999 18.216 1359.735 218.324" fill="#63bce3"/><polyline points="1359.735 218.324 1359.735 218.324 1157.999 18.216 1032.596 158.522 1359.735 218.324" fill="#74c4e4"/><polyline points="1318.843 335.629 1032.596 158.522 890.836 278.126 1318.843 335.629" fill="#9fd8ea"/><polyline points="1318.843 335.629 1318.843 335.629 1359.735 218.324 1032.596 158.522 1318.843 335.629" fill="#80c9e5"/><polyline points="890.836 278.126 1035.322 59.618 909.919 -82.987 890.836 278.126" fill="#7fc9e5"/><polyline points="890.836 278.126 1032.596 158.522 1035.322 59.618 890.836 278.126" fill="#94d3e8"/><polyline points="1594.185 503.535 1806.825 459.833 1509.673 220.625 1594.185 503.535" fill="#bfe4f2"/><polyline points="536.435 452.933 746.348 432.232 574.601 181.523 536.435 452.933" fill="#c4e8ef"/><polyline points="746.348 432.232 890.836 278.126 574.601 181.523 746.348 432.232" fill="#addfeb"/><polyline points="81.166 446.032 285.628 213.724 78.439 149.322 81.166 446.032" fill="#b3e2e9"/><polyline points="72.987 657.641 293.807 505.835 81.166 446.032 72.987 657.641" fill="#e4f5f6"/><polyline points="81.166 446.032 78.439 149.322 -0.619 -69.186 81.166 446.032" fill="#9fd9e4"/><polyline points="536.435 452.933 536.435 452.933 574.601 181.523 285.628 213.724 536.435 452.933" fill="#b1e0ea"/><polyline points="1806.825 459.833 1918.598 -69.186 1755.028 149.322 1806.825 459.833" fill="#d1ebf7"/><polyline points="1806.825 459.833 1755.028 149.322 1509.673 220.625 1806.825 459.833" fill="#91cfea"/><polyline points="293.807 505.835 285.628 213.724 81.166 446.032 293.807 505.835" fill="#c7eaee"/><polyline points="1416.984 508.135 1416.984 508.135 1509.673 220.625 1318.843 335.629 1416.984 508.135" fill="#b4e0ef"/><polyline points="1291.581 563.337 1416.984 508.135 1318.843 335.629 1291.581 563.337" fill="#caeaf3"/><polyline points="1365.187 685.241 1365.187 685.241 1416.984 508.135 1291.581 563.337 1365.187 685.241" fill="#e0f3f8"/><polyline points="1365.187 685.241 1594.185 503.535 1416.984 508.135 1365.187 685.241" fill="#eaf6fa"/><polyline points="1002.608 565.637 1318.843 335.629 890.836 278.126 1002.608 565.637" fill="#b6e2ee"/><polyline points="1002.608 565.637 1291.581 563.337 1318.843 335.629 1002.608 565.637" fill="#cbeaf2"/><polyline points="1002.608 565.637 1002.608 565.637 890.836 278.126 746.348 432.232 1002.608 565.637" fill="#cdebf2"/><polyline points="721.814 609.338 1002.608 565.637 746.348 432.232 721.814 609.338" fill="#e8f6f9"/><polyline points="721.814 609.338 721.814 609.338 746.348 432.232 536.435 452.933 721.814 609.338" fill="#e3f4f7"/><polyline points="958.99 740.444 1291.581 563.337 1002.608 565.637 958.99 740.444" fill="#e8f6f9"/><polyline points="318.341 627.74 318.341 627.74 536.435 452.933 293.807 505.835 318.341 627.74" fill="#e4f5f7"/><polyline points="1918.598 740.444 1918.598 740.444 1594.185 503.535 1365.187 685.241 1918.598 740.444" fill="#f4fbfd"/><polyline points="958.99 740.444 1365.187 685.241 1291.581 563.337 958.99 740.444" fill="#f5fbfc"/><polyline points="1918.598 740.444 1806.825 459.833 1594.185 503.535 1918.598 740.444" fill="#eef8fb"/><polyline points="1918.598 740.444 1918.598 -69.186 1806.825 459.833 1918.598 740.444" fill="#def1f9"/><polyline points="130.236 696.742 318.341 627.74 72.987 657.641 130.236 696.742" fill="#f6fcfc"/></svg>